<svg xmlns="http://www.w3.org/2000/svg" xmlns:xlink="http://www.w3.org/1999/xlink" contentStyleType="text/css" data-diagram-type="CLASS" height="1314px" preserveAspectRatio="none" style="width:1673px;height:1314px;background:#FFFFFF;" version="1.1" viewBox="0 0 1673 1314" width="1673px" zoomAndPan="magnify"><?plantuml 1.2026.6?><defs/><g><g class="title" data-source-line="1"><text fill="#000000" font-family="sans-serif" font-size="14" font-weight="700" lengthAdjust="spacing" textLength="220.2949" x="722.9772" y="23.5352">SORL - Modelos base do grafo</text></g><!--cluster Models--><g class="cluster" data-qualified-name="Models" data-source-line="5" id="ent0001"><path d="M8.5,43.4883 L61.0977,43.4883 A3.75,3.75 0 0 1 63.5977,45.9883 L70.5977,65.9766 L1037.5,65.9766 A2.5,2.5 0 0 1 1040,68.4766 L1040,1296.8483 A2.5,2.5 0 0 1 1037.5,1299.3483 L8.5,1299.3483 A2.5,2.5 0 0 1 6,1296.8483 L6,45.9883 A2.5,2.5 0 0 1 8.5,43.4883" fill="none" style="stroke:#000000;stroke-width:1.5;"/><line style="stroke:#000000;stroke-width:1.5;" x1="6" x2="70.5977" y1="65.9766" y2="65.9766"/><text fill="#000000" font-family="sans-serif" font-size="14" font-weight="700" lengthAdjust="spacing" textLength="51.5977" x="10" y="59.0234">Models</text></g><!--class Vertice--><g class="entity" data-qualified-name="Models.Vertice" data-source-line="6" id="ent0002"><rect fill="#F1F1F1" height="262.3477" rx="2.5" ry="2.5" style="stroke:#181818;stroke-width:0.5;" width="450.8535" x="459.57" y="1020.9983"/><ellipse cx="657.279" cy="1036.9983" fill="#ADD1B2" rx="11" ry="11" style="stroke:#181818;stroke-width:1;"/><path d="M659.7521,1043.1413 Q659.1711,1043.4402 658.5319,1043.5896 Q657.8928,1043.739 657.1872,1043.739 Q654.6804,1043.739 653.3605,1042.0871 Q652.0407,1040.4353 652.0407,1037.3142 Q652.0407,1034.1848 653.3605,1032.5329 Q654.6804,1030.8811 657.1872,1030.8811 Q657.8928,1030.8811 658.5402,1031.0305 Q659.1877,1031.1799 659.7521,1031.4787 L659.7521,1034.2014 Q659.1213,1033.6204 658.5278,1033.3506 Q657.9343,1033.0808 657.3034,1033.0808 Q655.9587,1033.0808 655.2739,1034.1475 Q654.589,1035.2141 654.589,1037.3142 Q654.589,1039.406 655.2739,1040.4726 Q655.9587,1041.5393 657.3034,1041.5393 Q657.9343,1041.5393 658.5278,1041.2695 Q659.1213,1040.9997 659.7521,1040.4187 Z " fill="#000000"/><text fill="#000000" font-family="sans-serif" font-size="14" lengthAdjust="spacing" textLength="46.9355" x="677.779" y="1042.2893">Vertice</text><line style="stroke:#181818;stroke-width:0.5;" x1="460.57" x2="909.4235" y1="1052.9983" y2="1052.9983"/><text fill="#000000" font-family="sans-serif" font-size="14" lengthAdjust="spacing" textLength="52.2197" x="465.57" y="1070.5334">-id : int</text><text fill="#000000" font-family="sans-serif" font-size="14" lengthAdjust="spacing" textLength="140.041" x="465.57" y="1087.0217">-grauDeEntrada : int</text><text fill="#000000" font-family="sans-serif" font-size="14" lengthAdjust="spacing" textLength="124.3867" x="465.57" y="1103.51">-grauDeSaida : int</text><text fill="#000000" font-family="sans-serif" font-size="14" lengthAdjust="spacing" textLength="60.8604" x="465.57" y="1119.9983">-cor : int</text><text fill="#000000" font-family="sans-serif" font-size="14" lengthAdjust="spacing" textLength="55.2344" x="465.57" y="1136.4866">+Id : int</text><text fill="#000000" font-family="sans-serif" font-size="14" lengthAdjust="spacing" textLength="144.457" x="465.57" y="1152.9748">+GrauDeEntrada : int</text><text fill="#000000" font-family="sans-serif" font-size="14" lengthAdjust="spacing" textLength="128.8027" x="465.57" y="1169.4631">+GrauDeSaida : int</text><text fill="#000000" font-family="sans-serif" font-size="14" lengthAdjust="spacing" textLength="66.4043" x="465.57" y="1185.9514">+Cor : int</text><line style="stroke:#181818;stroke-width:0.5;" x1="460.57" x2="909.4235" y1="1192.9045" y2="1192.9045"/><text fill="#000000" font-family="sans-serif" font-size="14" lengthAdjust="spacing" textLength="377.2344" x="465.57" y="1210.4397">+Vertice(id : int, grauDeEntrada : int, grauDeSaida : int)</text><text fill="#000000" font-family="sans-serif" font-size="14" lengthAdjust="spacing" textLength="438.8535" x="465.57" y="1226.928">+Vertice(id : int, grauDeEntrada : int, grauDeSaida : int, cor : int)</text><text fill="#000000" font-family="sans-serif" font-size="14" lengthAdjust="spacing" textLength="310.3857" x="465.57" y="1243.4162">+Atualizar_GrauDeEntrda(novoGrau : int) : int</text><text fill="#000000" font-family="sans-serif" font-size="14" lengthAdjust="spacing" textLength="302.4629" x="465.57" y="1259.9045">+Atualizar_GrauDeSaida(novoGrau : int) : int</text><text fill="#000000" font-family="sans-serif" font-size="14" lengthAdjust="spacing" textLength="230.9453" x="465.57" y="1276.3928">+Atualizar_Cor(novaCor : int) : int</text></g><!--class Aresta--><g class="entity" data-qualified-name="Models.Aresta" data-source-line="22" id="ent0003"><rect fill="#F1F1F1" height="278.8359" rx="2.5" ry="2.5" style="stroke:#181818;stroke-width:0.5;" width="688.4434" x="21.78" y="665.1683"/><ellipse cx="340.1057" cy="681.1683" fill="#ADD1B2" rx="11" ry="11" style="stroke:#181818;stroke-width:1;"/><path d="M342.5788,687.3113 Q341.9978,687.6102 341.3586,687.7596 Q340.7195,687.909 340.0139,687.909 Q337.5071,687.909 336.1872,686.2571 Q334.8674,684.6053 334.8674,681.4842 Q334.8674,678.3548 336.1872,676.7029 Q337.5071,675.0511 340.0139,675.0511 Q340.7195,675.0511 341.3669,675.2005 Q342.0144,675.3499 342.5788,675.6488 L342.5788,678.3714 Q341.948,677.7904 341.3545,677.5206 Q340.761,677.2508 340.1301,677.2508 Q338.7854,677.2508 338.1006,678.3175 Q337.4157,679.3841 337.4157,681.4842 Q337.4157,683.576 338.1006,684.6426 Q338.7854,685.7093 340.1301,685.7093 Q340.761,685.7093 341.3545,685.4395 Q341.948,685.1697 342.5788,684.5887 Z " fill="#000000"/><text fill="#000000" font-family="sans-serif" font-size="14" lengthAdjust="spacing" textLength="43.292" x="360.6057" y="686.4593">Aresta</text><line style="stroke:#181818;stroke-width:0.5;" x1="22.78" x2="709.2234" y1="697.1683" y2="697.1683"/><text fill="#000000" font-family="sans-serif" font-size="14" lengthAdjust="spacing" textLength="116.2998" x="27.78" y="714.7034">-origem : Vertice</text><text fill="#000000" font-family="sans-serif" font-size="14" lengthAdjust="spacing" textLength="118.6445" x="27.78" y="731.1917">-destino : Vertice</text><text fill="#000000" font-family="sans-serif" font-size="14" lengthAdjust="spacing" textLength="100.4951" x="27.78" y="747.68">-peso : double</text><text fill="#000000" font-family="sans-serif" font-size="14" lengthAdjust="spacing" textLength="143.9648" x="27.78" y="764.1683">-capacidade : double</text><text fill="#000000" font-family="sans-serif" font-size="14" lengthAdjust="spacing" textLength="138.5781" x="27.78" y="780.6566">-fluxoAtual : double</text><text fill="#000000" font-family="sans-serif" font-size="14" lengthAdjust="spacing" textLength="121.6045" x="27.78" y="797.1448">+Origem : Vertice</text><text fill="#000000" font-family="sans-serif" font-size="14" lengthAdjust="spacing" textLength="123.3477" x="27.78" y="813.6331">+Destino : Vertice</text><text fill="#000000" font-family="sans-serif" font-size="14" lengthAdjust="spacing" textLength="102.4502" x="27.78" y="830.1214">+Peso : double</text><text fill="#000000" font-family="sans-serif" font-size="14" lengthAdjust="spacing" textLength="149.5088" x="27.78" y="846.6097">+Capacidade : double</text><text fill="#000000" font-family="sans-serif" font-size="14" lengthAdjust="spacing" textLength="143.9648" x="27.78" y="863.098">+FluxoAtual : double</text><line style="stroke:#181818;stroke-width:0.5;" x1="22.78" x2="709.2234" y1="870.0511" y2="870.0511"/><text fill="#000000" font-family="sans-serif" font-size="14" lengthAdjust="spacing" textLength="676.4434" x="27.78" y="887.5863">+Aresta(origem : Vertice, destino : Vertice, peso : double, capacidade : double, fluxoAtual : double)</text><text fill="#000000" font-family="sans-serif" font-size="14" lengthAdjust="spacing" textLength="351.5723" x="27.78" y="904.0745">+Atualizar_FluxoAtual(novoFluxo : double) : double</text><text fill="#000000" font-family="sans-serif" font-size="14" lengthAdjust="spacing" textLength="254.1807" x="27.78" y="920.5628">+ObterCapacidadeResidual() : double</text><text fill="#000000" font-family="sans-serif" font-size="14" lengthAdjust="spacing" textLength="146.5078" x="27.78" y="937.0511">+LimparFluxo() : void</text></g><!--class Grafo--><g class="entity" data-qualified-name="Models.Grafo" data-source-line="39" id="ent0004"><rect fill="#F1F1F1" height="509.6719" rx="2.5" ry="2.5" style="stroke:#181818;stroke-width:0.5;" width="394.4502" x="606.77" y="78.4883"/><ellipse cx="781.083" cy="94.4883" fill="#ADD1B2" rx="11" ry="11" style="stroke:#181818;stroke-width:1;"/><path d="M783.5561,100.6313 Q782.9751,100.9302 782.3359,101.0796 Q781.6968,101.229 780.9912,101.229 Q778.4844,101.229 777.1645,99.5771 Q775.8447,97.9253 775.8447,94.8042 Q775.8447,91.6748 777.1645,90.0229 Q778.4844,88.3711 780.9912,88.3711 Q781.6968,88.3711 782.3442,88.5205 Q782.9917,88.6699 783.5561,88.9688 L783.5561,91.6914 Q782.9253,91.1104 782.3318,90.8406 Q781.7383,90.5708 781.1074,90.5708 Q779.7627,90.5708 779.0779,91.6375 Q778.393,92.7041 778.393,94.8042 Q778.393,96.896 779.0779,97.9626 Q779.7627,99.0293 781.1074,99.0293 Q781.7383,99.0293 782.3318,98.7595 Q782.9253,98.4897 783.5561,97.9087 Z " fill="#000000"/><text fill="#000000" font-family="sans-serif" font-size="14" lengthAdjust="spacing" textLength="37.3242" x="801.583" y="99.7793">Grafo</text><line style="stroke:#181818;stroke-width:0.5;" x1="607.77" x2="1000.2202" y1="110.4883" y2="110.4883"/><text fill="#000000" font-family="sans-serif" font-size="14" lengthAdjust="spacing" textLength="123.8809" x="612.77" y="128.0234">-numVertices : int</text><text fill="#000000" font-family="sans-serif" font-size="14" lengthAdjust="spacing" textLength="120.2373" x="612.77" y="144.5117">-numArestas : int</text><text fill="#000000" font-family="sans-serif" font-size="14" lengthAdjust="spacing" textLength="166.6328" x="612.77" y="161">-vertices : List&lt;Vertice&gt;</text><text fill="#000000" font-family="sans-serif" font-size="14" lengthAdjust="spacing" textLength="159.3252" x="612.77" y="177.4883">-arestas : List&lt;Aresta&gt;</text><text fill="#000000" font-family="sans-serif" font-size="14" lengthAdjust="spacing" textLength="192.2813" x="612.77" y="193.9766">-representacaoAtual : string</text><text fill="#000000" font-family="sans-serif" font-size="14" lengthAdjust="spacing" textLength="346.083" x="612.77" y="210.4648">-lista_adjacencias : Dictionary&lt;int, List&lt;Vertice&gt;&gt;</text><text fill="#000000" font-family="sans-serif" font-size="14" lengthAdjust="spacing" textLength="210.7998" x="612.77" y="226.9531">-matriz_adjacencias : double[,]</text><text fill="#000000" font-family="sans-serif" font-size="14" lengthAdjust="spacing" textLength="128.5635" x="612.77" y="243.4414">+NumVertices : int</text><text fill="#000000" font-family="sans-serif" font-size="14" lengthAdjust="spacing" textLength="124.9199" x="612.77" y="259.9297">+NumArestas : int</text><text fill="#000000" font-family="sans-serif" font-size="14" lengthAdjust="spacing" textLength="171.5684" x="612.77" y="276.418">+Vertices : List&lt;Vertice&gt;</text><text fill="#000000" font-family="sans-serif" font-size="14" lengthAdjust="spacing" textLength="164.2813" x="612.77" y="292.9063">+Arestas : List&lt;Aresta&gt;</text><text fill="#000000" font-family="sans-serif" font-size="14" lengthAdjust="spacing" textLength="198.4336" x="612.77" y="309.3945">+RepresentacaoAtual : string</text><line style="stroke:#181818;stroke-width:0.5;" x1="607.77" x2="1000.2202" y1="316.3477" y2="316.3477"/><text fill="#000000" font-family="sans-serif" font-size="14" lengthAdjust="spacing" textLength="294.335" x="612.77" y="333.8828">+Grafo(numVertices : int, numArestas : int)</text><text fill="#000000" font-family="sans-serif" font-size="14" lengthAdjust="spacing" textLength="57.5586" x="612.77" y="350.3711">+Grafo()</text><text fill="#000000" font-family="sans-serif" font-size="14" lengthAdjust="spacing" textLength="190.3467" x="612.77" y="366.8594">+DefinirDensidade() : string</text><text fill="#000000" font-family="sans-serif" font-size="14" lengthAdjust="spacing" textLength="244.5898" x="612.77" y="383.3477">+Construir_ListaAjdacencias() : void</text><text fill="#000000" font-family="sans-serif" font-size="14" lengthAdjust="spacing" textLength="248.6641" x="612.77" y="399.8359">+Contruir_MatrizAdjacencias() : void</text><text fill="#000000" font-family="sans-serif" font-size="14" lengthAdjust="spacing" textLength="235.9355" x="612.77" y="416.3242">+Escolher_Representacao() : string</text><text fill="#000000" font-family="sans-serif" font-size="14" lengthAdjust="spacing" textLength="330.4014" x="612.77" y="432.8125">+ObterAdjacentes(idVertice : int) : List&lt;Vertice&gt;</text><text fill="#000000" font-family="sans-serif" font-size="14" lengthAdjust="spacing" textLength="259.3486" x="612.77" y="449.3008">+AdicionarVertice(v : Vertice) : Vertice</text><text fill="#000000" font-family="sans-serif" font-size="14" lengthAdjust="spacing" textLength="235.6689" x="612.77" y="465.7891">+AdicionarAresta(a : Aresta) : bool</text><text fill="#000000" font-family="sans-serif" font-size="14" lengthAdjust="spacing" textLength="254.707" x="612.77" y="482.2773">+PosicaoVertice(vertice : Vertice) : int</text><text fill="#000000" font-family="sans-serif" font-size="14" lengthAdjust="spacing" textLength="382.4502" x="612.77" y="498.7656">+PesoAresta(origem : Vertice, destino : Vertice) : double</text><text fill="#000000" font-family="sans-serif" font-size="14" lengthAdjust="spacing" textLength="249.2041" x="612.77" y="515.2539">+ObterVertice(posicao : int) : Vertice</text><text fill="#000000" font-family="sans-serif" font-size="14" lengthAdjust="spacing" textLength="244.877" x="612.77" y="531.7422">+ObterVerticePorId(id : int) : Vertice</text><text fill="#000000" font-family="sans-serif" font-size="14" lengthAdjust="spacing" textLength="366.5977" x="612.77" y="548.2305">+ObterArestasSaindoDe(idVertice : int) : List&lt;Aresta&gt;</text><text fill="#000000" font-family="sans-serif" font-size="14" lengthAdjust="spacing" textLength="265.46" x="612.77" y="564.7188">-ObterIndiceVertice(idVertice : int) : int</text><text fill="#000000" font-family="sans-serif" font-size="14" lengthAdjust="spacing" textLength="343.5811" x="612.77" y="581.207">-ArestaExiste(idOrigem : int, idDestino : int) : bool</text></g><g class="entity" data-qualified-name="GMN10" data-source-line="78" id="ent0011"><path d="M1391.76,768.9583 L1391.76,840.2005 L1658.2493,840.2005 L1658.2493,778.9583 L1648.2493,768.9583 L1391.76,768.9583" fill="#FEFFDD" style="stroke:#181818;stroke-width:0.5;"/><path d="M1648.2493,768.9583 L1648.2493,778.9583 L1658.2493,778.9583 L1648.2493,768.9583" fill="#FEFFDD" style="stroke:#181818;stroke-width:1;"/><text fill="#000000" font-family="sans-serif" font-size="13" lengthAdjust="spacing" textLength="142.8667" x="1397.76" y="786.5266">Peso representa custo.</text><text fill="#000000" font-family="sans-serif" font-size="13" lengthAdjust="spacing" textLength="245.4893" x="1397.76" y="801.8372">Capacidade representa limite logistico.</text><text fill="#000000" font-family="sans-serif" font-size="13" lengthAdjust="spacing" textLength="224.3135" x="1397.76" y="817.1477">FluxoAtual recebe o valor calculado</text><text fill="#000000" font-family="sans-serif" font-size="13" lengthAdjust="spacing" textLength="207.981" x="1397.76" y="832.4583">pelo algoritmo de fluxo maximo.</text></g><g class="entity" data-qualified-name="GMN13" data-source-line="85" id="ent0014"><path d="M1058.78,776.6183 L1058.78,832.5499 A0,0 0 0 0 1058.78,832.5499 L1357.2234,832.5499 A0,0 0 0 0 1357.2234,832.5499 L1357.2234,786.6183 L1347.2234,776.6183 L1188.48,776.6183 L1001.56,563.7983 L1180.48,776.6183 L1058.78,776.6183 A0,0 0 0 0 1058.78,776.6183" fill="#FEFFDD" style="stroke:#181818;stroke-width:0.5;"/><path d="M1347.2234,776.6183 L1347.2234,786.6183 L1357.2234,786.6183 L1347.2234,776.6183" fill="#FEFFDD" style="stroke:#181818;stroke-width:0.5;"/><text fill="#000000" font-family="sans-serif" font-size="13" lengthAdjust="spacing" textLength="275.6089" x="1064.78" y="794.1866">A representacao e escolhida por densidade:</text><text fill="#000000" font-family="sans-serif" font-size="13" lengthAdjust="spacing" textLength="258.5083" x="1064.78" y="809.4972">lista de adjacencias para grafos esparsos</text><text fill="#000000" font-family="sans-serif" font-size="13" lengthAdjust="spacing" textLength="277.4434" x="1064.78" y="824.8077">e matriz de adjacencias para grafos densos.</text></g><!--reverse link Grafo to Vertice--><g class="link" data-entity-1="ent0004" data-entity-2="ent0002" data-link-type="aggregation" data-source-line="71" id="lnk5"><path codeLine="71" d="M775.5419,600.5266 C762.6819,710.1566 747.28,827.7283 728,943.9983 C723.88,968.8283 718.89,995.1983 713.79,1020.5083" fill="none" id="Grafo-backto-Vertice" style="stroke:#181818;stroke-width:1;"/><polygon fill="none" points="776.94,588.6083,772.2682,594.1014,775.5419,600.5266,780.2137,595.0334,776.94,588.6083" style="stroke:#181818;stroke-width:1;stroke-linejoin:miter;stroke-miterlimit:10;"/><text fill="#000000" font-family="sans-serif" font-size="13" lengthAdjust="spacing" textLength="48.439" x="768.56" y="809.6466">vertices</text><text fill="#000000" font-family="sans-serif" font-size="13" lengthAdjust="spacing" textLength="8.2202" x="768.0213" y="608.9827">1</text><text fill="#000000" font-family="sans-serif" font-size="13" lengthAdjust="spacing" textLength="22.7119" x="692.8393" y="1010.0402">0..*</text></g><!--link Grafo to Vertice--><g class="link" data-entity-1="ent0004" data-entity-2="ent0002" data-link-type="dependency" data-source-line="75" id="lnk9"><path codeLine="75" d="M850.2,588.4083 C861.07,699.7683 860.92,830.6283 826,943.9983 C817.87,970.4083 807.6703,992.1755 793.0603,1016.4255" fill="none" id="Grafo-to-Vertice" style="stroke:#181818;stroke-width:1;stroke-dasharray:7,7;"/><polygon fill="#181818" points="790.48,1020.7083,798.5507,1015.0635,793.0603,1016.4255,791.6983,1010.9351,790.48,1020.7083" style="stroke:#181818;stroke-width:1;stroke-linejoin:miter;stroke-miterlimit:10;"/><text fill="#000000" font-family="sans-serif" font-size="13" lengthAdjust="spacing" textLength="122.5225" x="857.54" y="809.6466">lista de adjacencias</text></g><!--reverse link Grafo to Aresta--><g class="link" data-entity-1="ent0004" data-entity-2="ent0003" data-link-type="aggregation" data-source-line="72" id="lnk6"><path codeLine="72" d="M598.2722,554.7309 C560.6122,595.0809 530.28,627.5783 495.42,664.9283" fill="none" id="Grafo-backto-Aresta" style="stroke:#181818;stroke-width:1;"/><polygon fill="none" points="606.46,545.9583,599.4419,547.6153,598.2722,554.7309,605.2903,553.0739,606.46,545.9583" style="stroke:#181818;stroke-width:1;stroke-linejoin:miter;stroke-miterlimit:10;"/><text fill="#000000" font-family="sans-serif" font-size="13" lengthAdjust="spacing" textLength="45.0366" x="533.89" y="631.7366">arestas</text><text fill="#000000" font-family="sans-serif" font-size="13" lengthAdjust="spacing" textLength="8.2202" x="590.5918" y="551.5458">1</text><text fill="#000000" font-family="sans-serif" font-size="13" lengthAdjust="spacing" textLength="22.7119" x="479.9155" y="654.4574">0..*</text></g><!--link Aresta to Vertice--><g class="link" data-entity-1="ent0003" data-entity-2="ent0002" data-link-type="dependency" data-source-line="73" id="lnk7"><path codeLine="73" d="M460.61,944.0983 C473.3,960.3583 486.59,976.3583 500,990.9983 C509.18,1001.0283 515.3857,1007.552 525.4657,1017.412" fill="none" id="Aresta-to-Vertice" style="stroke:#181818;stroke-width:1;"/><polygon fill="#181818" points="529.04,1020.9083,525.4033,1011.7555,525.4657,1017.412,519.8092,1017.4744,529.04,1020.9083" style="stroke:#181818;stroke-width:1;stroke-linejoin:miter;stroke-miterlimit:10;"/><text fill="#000000" font-family="sans-serif" font-size="13" lengthAdjust="spacing" textLength="44.5479" x="501" y="987.5666">origem</text><text fill="#000000" font-family="sans-serif" font-size="13" lengthAdjust="spacing" textLength="6.2651" x="459.6271" y="964.7149">*</text><text fill="#000000" font-family="sans-serif" font-size="13" lengthAdjust="spacing" textLength="8.2202" x="511.7989" y="1010.4633">1</text></g><!--link Aresta to Vertice--><g class="link" data-entity-1="ent0003" data-entity-2="ent0002" data-link-type="dependency" data-source-line="74" id="lnk8"><path codeLine="74" d="M521.57,944.2183 C531.38,954.1083 540.94,964.0883 550,973.9983 C563.43,988.6983 573.793,1000.7648 586.773,1016.8748" fill="none" id="Aresta-to-Vertice-1" style="stroke:#181818;stroke-width:1;"/><polygon fill="#181818" points="589.91,1020.7683,587.3782,1011.2504,586.773,1016.8748,581.1486,1016.2696,589.91,1020.7683" style="stroke:#181818;stroke-width:1;stroke-linejoin:miter;stroke-miterlimit:10;"/><text fill="#000000" font-family="sans-serif" font-size="13" lengthAdjust="spacing" textLength="46.7251" x="563.02" y="987.5666">destino</text><text fill="#000000" font-family="sans-serif" font-size="13" lengthAdjust="spacing" textLength="6.2651" x="523.4436" y="964.3811">*</text><text fill="#000000" font-family="sans-serif" font-size="13" lengthAdjust="spacing" textLength="8.2202" x="576.1879" y="1010.3152">1</text></g><!--link Aresta to GMN10--><g class="link" data-entity-1="ent0003" data-entity-2="ent0011" data-link-type="association" data-source-line="78" id="lnk12"><path d="M632.54,664.6883 C672.49,649.0083 713.91,635.5183 754.5,626.6683 C885.42,598.1083 1234.49,573.5283 1357.5,626.6683 C1424.29,655.5183 1476.77,725.5583 1504.13,768.6583" fill="none" id="Aresta-GMN10" style="stroke:#181818;stroke-width:1;stroke-dasharray:7,7;"/></g><?plantuml-src hLPDQzmm4BtxLmnxIhhUfRs64bYwQGca7oJGIob1AobRjRPcaUGbJUb_xqYMRJcMbnQwfqJpvkjfzCPEkKh2tSVR6rZ1UnIoGWixPYK8XBrX3rWKzeVI1sPO3RnYrcwSCshNE7dDKT-f9malY-B0-0-sbx08CUm2VXL0l-00dwLnYijuvdyhK08kG6cN756wPYklj3DCi1dh7LCP6qVpx6m9rs9ozEv4WiwQIx24Dva4iQkphfCorq0vhVlyFyGeXvRJS1lNi4ezCNC_j2hOcSOZ-eFeCEdakLj8z0zUn8v7ivwb5FoxI2PXOwHrR3G8QDHUrkGGkKXCWi1AOzPsaDOR13QxAZtdZ4QHoXSoPtsecaSCXK-jI_WuLyeIjhEbBE5JjXGQcXEbBE7joL9QeiwUarDEEId7L9Gv1ifSu_d16SeA0n3-7LoohEsSD4Eljz8guTspu1jLavI4g05mH2McO_BE2yzeIdHJntxjvFMJhQLhQZeEFZVAkjSnncK2ORrhGBIHKe2H1pgJsZ7EUWejQQ3U9wYAdDaz4zyPbvgh472hk5EecVdvEhpPKGbfYffHkATdtYrtNygl2NqVPca8jZmDlSpCqz0Dt2mDIxZz2ngMxSsTJMwhd5pI-SJfVFJS7fHMPYkr3KCLPcMIx0rgEckKkVSriyrtqT4tdgqUtOBV1xOt0zavz9NbM7sJvdxKTxwEy09YF2SjgNctyNerdALTA1v6fDi4n-5bdsVLflU84k4tGlkdn-yGgrIQq2egkm_UbvMa68-A5xE_5vzvGUXI7jeA1YQc7QNuJsYkHRyEJ-3ZCD6gqWAtSfRpwNiExjUQQ9J3-fquZtMaZNBrI14zkbyKORIL6BP3zEwluNT1mjRAsUBL0d2rWiNBzVh50eQCdKZbSN5bNdH2LSI31TbMgyi07sArTtOQ4synfbklBnDRa352GA95HQ7HIQ38tnpWGwoe26jl44VWZNMuBfAjbnWhLIkAKU6U4YXEk6J_6SdbJWB2aLNq2S5PnPkA2ImEz3aAhDfJLwv6NrROOwINZwgc658ByBN52dVe7DQ-nD1QiHbhDqYGuLNxpwW39HATl5mKkRx1V_Is7y6MFEa_YxQGKQrFWNrWj4bzVm00?></g></svg>