<svg xmlns="http://www.w3.org/2000/svg" xmlns:xlink="http://www.w3.org/1999/xlink" contentStyleType="text/css" data-diagram-type="DESCRIPTION" height="887px" preserveAspectRatio="none" style="width:645px;height:887px;background:#FFFFFF;" version="1.1" viewBox="0 0 645 887" width="645px" zoomAndPan="magnify"><?plantuml 1.2026.6?><defs/><g><g class="title" data-source-line="1"><text fill="#000000" font-family="sans-serif" font-size="14" font-weight="700" lengthAdjust="spacing" textLength="246.0049" x="196.0088" y="23.5352">SORL - Fluxos principais do menu</text></g><!--cluster Program.cs--><g class="cluster" data-qualified-name="Program.cs" data-source-line="7" id="ent0002"><rect fill="none" height="605" rx="2.5" ry="2.5" style="stroke:#181818;stroke-width:1;" width="474.53" x="101.63" y="44.4883"/><text fill="#000000" font-family="sans-serif" font-size="14" font-weight="700" lengthAdjust="spacing" textLength="80.124" x="298.833" y="60.0234">Program.cs</text></g><!--entity UC_Grafo--><g class="entity" data-qualified-name="Program.cs.UC_Grafo" data-source-line="8" id="ent0003"><ellipse cx="493.4582" cy="438.4879" fill="#F1F1F1" rx="66.6982" ry="15.7396" style="stroke:#181818;stroke-width:0.5;"/><text fill="#000000" font-family="sans-serif" font-size="14" lengthAdjust="spacing" textLength="97.125" x="444.8957" y="443.2321">Escolher grafo</text></g><!--entity UC_Dijkstra--><g class="entity" data-qualified-name="Program.cs.UC_Dijkstra" data-source-line="9" id="ent0004"><ellipse cx="207.2609" cy="354.4868" fill="#F1F1F1" rx="70.8509" ry="24.2486" style="stroke:#181818;stroke-width:0.5;"/><text fill="#000000" font-family="sans-serif" font-size="14" lengthAdjust="spacing" textLength="105.3008" x="154.6105" y="354.0722">Menor caminho</text><text fill="#000000" font-family="sans-serif" font-size="14" lengthAdjust="spacing" textLength="52.8076" x="180.8571" y="370.5605">Dijkstra</text></g><!--entity UC_Fluxo--><g class="entity" data-qualified-name="Program.cs.UC_Fluxo" data-source-line="10" id="ent0005"><ellipse cx="207.2578" cy="524.4918" fill="#F1F1F1" rx="77.2478" ry="25.4235" style="stroke:#181818;stroke-width:0.5;"/><text fill="#000000" font-family="sans-serif" font-size="14" lengthAdjust="spacing" textLength="109.1904" x="152.6625" y="522.283">Fluxo maximo e</text><text fill="#000000" font-family="sans-serif" font-size="14" lengthAdjust="spacing" textLength="90.4873" x="162.0141" y="538.7713">corte minimo</text></g><!--entity UC_Kruskal--><g class="entity" data-qualified-name="Program.cs.UC_Kruskal" data-source-line="11" id="ent0006"><ellipse cx="207.2625" cy="609.4896" fill="#F1F1F1" rx="74.3425" ry="24.1113" style="stroke:#181818;stroke-width:0.5;"/><text fill="#000000" font-family="sans-serif" font-size="14" lengthAdjust="spacing" textLength="111.4395" x="151.5428" y="609.2937">Arvore Geradora</text><text fill="#000000" font-family="sans-serif" font-size="14" lengthAdjust="spacing" textLength="49.6426" x="182.4412" y="625.7819">Minima</text></g><!--entity UC_Coloracao--><g class="entity" data-qualified-name="Program.cs.UC_Coloracao" data-source-line="12" id="ent0007"><ellipse cx="207.257" cy="438.4932" fill="#F1F1F1" rx="81.047" ry="25.2149" style="stroke:#181818;stroke-width:0.5;"/><text fill="#000000" font-family="sans-serif" font-size="14" lengthAdjust="spacing" textLength="115.8555" x="149.3293" y="436.5939">Agendamento de</text><text fill="#000000" font-family="sans-serif" font-size="14" lengthAdjust="spacing" textLength="90.6104" x="161.9519" y="453.0822">manutencoes</text></g><!--entity UC_Inspecao--><g class="entity" data-qualified-name="Program.cs.UC_Inspecao" data-source-line="13" id="ent0008"><ellipse cx="207.2605" cy="270.4914" fill="#F1F1F1" rx="56.3505" ry="25.0931" style="stroke:#181818;stroke-width:0.5;"/><text fill="#000000" font-family="sans-serif" font-size="14" lengthAdjust="spacing" textLength="79.6318" x="167.4446" y="268.7745">Percurso de</text><text fill="#000000" font-family="sans-serif" font-size="14" lengthAdjust="spacing" textLength="59.9854" x="177.2679" y="285.2628">inspecao</text></g><!--entity UC_TesteFluxo--><g class="entity" data-qualified-name="Program.cs.UC_TesteFluxo" data-source-line="14" id="ent0009"><ellipse cx="207.2602" cy="186.4851" fill="#F1F1F1" rx="74.4802" ry="24.2668" style="stroke:#181818;stroke-width:0.5;"/><text fill="#000000" font-family="sans-serif" font-size="14" lengthAdjust="spacing" textLength="110.8379" x="151.8412" y="186.0415">Testar fluxo nos</text><text fill="#000000" font-family="sans-serif" font-size="14" lengthAdjust="spacing" textLength="56.3555" x="179.0824" y="202.5298">7 grafos</text></g><!--entity UC_TesteInspecao--><g class="entity" data-qualified-name="Program.cs.UC_TesteInspecao" data-source-line="15" id="ent0010"><ellipse cx="207.263" cy="103.4925" fill="#F1F1F1" rx="89.633" ry="24.0442" style="stroke:#181818;stroke-width:0.5;"/><text fill="#000000" font-family="sans-serif" font-size="14" lengthAdjust="spacing" textLength="135.7549" x="139.3856" y="103.4042">Testar inspecao nos</text><text fill="#000000" font-family="sans-serif" font-size="14" lengthAdjust="spacing" textLength="56.3555" x="179.0853" y="119.8925">7 grafos</text></g><!--entity UC_Log--><g class="entity" data-qualified-name="Program.cs.UC_Log" data-source-line="16" id="ent0011"><ellipse cx="493.4649" cy="270.4873" fill="#F1F1F1" rx="47.4849" ry="14.659" style="stroke:#181818;stroke-width:0.5;"/><text fill="#000000" font-family="sans-serif" font-size="14" lengthAdjust="spacing" textLength="62.9111" x="462.0093" y="275.2314">Gerar log</text></g><!--entity Usuario--><g class="entity" data-qualified-name="Usuario" data-source-line="5" id="ent0001"><ellipse cx="31.8159" cy="324.7483" fill="#F1F1F1" rx="8" ry="8" style="stroke:#181818;stroke-width:0.5;"/><path d="M31.8159,332.7483 L31.8159,359.7483 M18.8159,340.7483 L44.8159,340.7483 M31.8159,359.7483 L18.8159,374.7483 M31.8159,359.7483 L44.8159,374.7483" fill="none" style="stroke:#181818;stroke-width:0.5;"/><text fill="#000000" font-family="sans-serif" font-size="14" lengthAdjust="spacing" textLength="51.6318" x="6" y="389.7834">Usuario</text></g><g class="entity" data-qualified-name="GMN29" data-source-line="40" id="ent0030"><path d="M358.09,816.5283 L358.09,872.4599 L628.8258,872.4599 L628.8258,826.5283 L618.8258,816.5283 L358.09,816.5283" fill="#FEFFDD" style="stroke:#181818;stroke-width:0.5;"/><path d="M618.8258,816.5283 L618.8258,826.5283 L628.8258,826.5283 L618.8258,816.5283" fill="#FEFFDD" style="stroke:#181818;stroke-width:1;"/><text fill="#000000" font-family="sans-serif" font-size="13" lengthAdjust="spacing" textLength="152.1724" x="364.09" y="834.0966">Executa Edmonds-Karp.</text><text fill="#000000" font-family="sans-serif" font-size="13" lengthAdjust="spacing" textLength="139.2422" x="364.09" y="849.4072">Mostra fluxo maximo,</text><text fill="#000000" font-family="sans-serif" font-size="13" lengthAdjust="spacing" textLength="249.7358" x="364.09" y="864.7177">caminhos aumentantes e corte minimo.</text></g><g class="entity" data-qualified-name="GMN32" data-source-line="46" id="ent0033"><path d="M356.9,741.1783 L356.9,781.7994 L630.0226,781.7994 L630.0226,751.1783 L620.0226,741.1783 L356.9,741.1783" fill="#FEFFDD" style="stroke:#181818;stroke-width:0.5;"/><path d="M620.0226,741.1783 L620.0226,751.1783 L630.0226,751.1783 L620.0226,741.1783" fill="#FEFFDD" style="stroke:#181818;stroke-width:1;"/><text fill="#000000" font-family="sans-serif" font-size="13" lengthAdjust="spacing" textLength="252.1226" x="362.9" y="758.7466">Transforma rotas em grafo de conflitos.</text><text fill="#000000" font-family="sans-serif" font-size="13" lengthAdjust="spacing" textLength="193.8574" x="362.9" y="774.0572">Cada cor representa um turno.</text></g><g class="entity" data-qualified-name="GMN35" data-source-line="51" id="ent0036"><path d="M402.4,665.1783 L402.4,705.7994 L584.5099,705.7994 L584.5099,675.1783 L574.5099,665.1783 L402.4,665.1783" fill="#FEFFDD" style="stroke:#181818;stroke-width:0.5;"/><path d="M574.5099,665.1783 L574.5099,675.1783 L584.5099,675.1783 L574.5099,665.1783" fill="#FEFFDD" style="stroke:#181818;stroke-width:1;"/><text fill="#000000" font-family="sans-serif" font-size="13" lengthAdjust="spacing" textLength="161.1099" x="408.4" y="682.7466">Verifica circuito euleriano</text><text fill="#000000" font-family="sans-serif" font-size="13" lengthAdjust="spacing" textLength="131.2061" x="408.4" y="698.0572">e ciclo hamiltoniano.</text></g><!--link Usuario to UC_Dijkstra--><g class="link" data-entity-1="ent0001" data-entity-2="ent0004" data-link-type="dependency" data-source-line="19" id="lnk12"><path d="M58.04,354.4883 C78.52,354.4883 103.43,354.4883 131.03,354.4883" fill="none" id="Usuario-to-UC_Dijkstra" style="stroke:#181818;stroke-width:1;"/><polygon fill="#181818" points="136.03,354.4883,127.03,350.4883,131.03,354.4883,127.03,358.4883,136.03,354.4883" style="stroke:#181818;stroke-width:1;stroke-linejoin:miter;stroke-miterlimit:10;"/></g><!--link Usuario to UC_Fluxo--><g class="link" data-entity-1="ent0001" data-entity-2="ent0005" data-link-type="dependency" data-source-line="20" id="lnk13"><path d="M42.87,393.0383 C51.96,420.9583 67.92,457.8083 93.63,481.4883 C107.56,494.3283 121.0234,501.7429 138.6834,508.1929" fill="none" id="Usuario-to-UC_Fluxo" style="stroke:#181818;stroke-width:1;"/><polygon fill="#181818" points="143.38,509.9083,136.2985,503.0634,138.6834,508.1929,133.5539,510.5779,143.38,509.9083" style="stroke:#181818;stroke-width:1;stroke-linejoin:miter;stroke-miterlimit:10;"/></g><!--link Usuario to UC_Kruskal--><g class="link" data-entity-1="ent0001" data-entity-2="ent0006" data-link-type="dependency" data-source-line="21" id="lnk14"><path d="M33.69,392.9583 C36.79,439.9183 48.87,519.0583 93.63,567.4883 C106.59,581.5183 119.9598,589.2292 137.8498,595.4792" fill="none" id="Usuario-to-UC_Kruskal" style="stroke:#181818;stroke-width:1;"/><polygon fill="#181818" points="142.57,597.1283,135.3928,590.3838,137.8498,595.4792,132.7543,597.9362,142.57,597.1283" style="stroke:#181818;stroke-width:1;stroke-linejoin:miter;stroke-miterlimit:10;"/></g><!--link Usuario to UC_Coloracao--><g class="link" data-entity-1="ent0001" data-entity-2="ent0007" data-link-type="dependency" data-source-line="22" id="lnk15"><path d="M57.97,373.9483 C68.6,381.6083 81.34,390.0883 93.63,396.4883 C111.21,405.6583 126.5494,412.1041 144.8094,418.7241" fill="none" id="Usuario-to-UC_Coloracao" style="stroke:#181818;stroke-width:1;"/><polygon fill="#181818" points="149.51,420.4283,142.4122,413.6003,144.8094,418.7241,139.6856,421.1213,149.51,420.4283" style="stroke:#181818;stroke-width:1;stroke-linejoin:miter;stroke-miterlimit:10;"/></g><!--link Usuario to UC_Inspecao--><g class="link" data-entity-1="ent0001" data-entity-2="ent0008" data-link-type="dependency" data-source-line="23" id="lnk16"><path d="M57.97,335.0383 C68.6,327.3783 81.34,318.8983 93.63,312.4883 C114.73,301.4883 134.6432,293.5883 155.4932,286.3983" fill="none" id="Usuario-to-UC_Inspecao" style="stroke:#181818;stroke-width:1;"/><polygon fill="#181818" points="160.22,284.7683,150.4077,283.9209,155.4932,286.3983,153.0157,291.4838,160.22,284.7683" style="stroke:#181818;stroke-width:1;stroke-linejoin:miter;stroke-miterlimit:10;"/></g><!--link Usuario to UC_TesteFluxo--><g class="link" data-entity-1="ent0001" data-entity-2="ent0009" data-link-type="dependency" data-source-line="24" id="lnk17"><path d="M42.77,315.8283 C51.8,287.8483 67.74,250.9783 93.63,227.4883 C107.74,214.6983 121.4225,207.4463 139.2525,201.3063" fill="none" id="Usuario-to-UC_TesteFluxo" style="stroke:#181818;stroke-width:1;"/><polygon fill="#181818" points="143.98,199.6783,134.168,198.8266,139.2525,201.3063,136.7728,206.3907,143.98,199.6783" style="stroke:#181818;stroke-width:1;stroke-linejoin:miter;stroke-miterlimit:10;"/></g><!--link Usuario to UC_TesteInspecao--><g class="link" data-entity-1="ent0001" data-entity-2="ent0010" data-link-type="dependency" data-source-line="25" id="lnk18"><path d="M33.82,316.0883 C37.06,269.6783 49.3,191.9083 93.63,144.4883 C104.79,132.5583 115.0358,125.9153 130.3458,119.9053" fill="none" id="Usuario-to-UC_TesteInspecao" style="stroke:#181818;stroke-width:1;"/><polygon fill="#181818" points="135,118.0783,125.1607,117.6436,130.3458,119.9053,128.084,125.0903,135,118.0783" style="stroke:#181818;stroke-width:1;stroke-linejoin:miter;stroke-miterlimit:10;"/></g><!--link UC_Dijkstra to UC_Grafo--><g class="link" data-entity-1="ent0004" data-entity-2="ent0003" data-link-type="dependency" data-source-line="27" id="lnk19"><path d="M261.72,370.2883 C316.39,386.4483 395.4051,409.811 445.5451,424.631" fill="none" id="UC_Dijkstra-to-UC_Grafo" style="stroke:#181818;stroke-width:1;"/><polygon fill="#181818" points="450.34,426.0483,442.8429,419.6613,445.5451,424.631,440.5753,427.3332,450.34,426.0483" style="stroke:#181818;stroke-width:1;stroke-linejoin:miter;stroke-miterlimit:10;"/></g><!--link UC_Fluxo to UC_Grafo--><g class="link" data-entity-1="ent0005" data-entity-2="ent0003" data-link-type="dependency" data-source-line="28" id="lnk20"><path d="M265.09,507.2983 C320,490.6783 397.0945,467.3571 446.1445,452.5071" fill="none" id="UC_Fluxo-to-UC_Grafo" style="stroke:#181818;stroke-width:1;"/><polygon fill="#181818" points="450.93,451.0583,441.1571,449.8378,446.1445,452.5071,443.4752,457.4945,450.93,451.0583" style="stroke:#181818;stroke-width:1;stroke-linejoin:miter;stroke-miterlimit:10;"/></g><!--link UC_Kruskal to UC_Grafo--><g class="link" data-entity-1="ent0006" data-entity-2="ent0003" data-link-type="dependency" data-source-line="29" id="lnk21"><path d="M252.61,589.9683 C266.96,583.2583 282.8,575.4283 296.9,567.4883 C362.82,530.3783 432.1183,482.0142 467.3183,456.7442" fill="none" id="UC_Kruskal-to-UC_Grafo" style="stroke:#181818;stroke-width:1;"/><polygon fill="#181818" points="471.38,453.8283,461.7362,455.8275,467.3183,456.7442,466.4016,462.3263,471.38,453.8283" style="stroke:#181818;stroke-width:1;stroke-linejoin:miter;stroke-miterlimit:10;"/></g><!--link UC_Coloracao to UC_Grafo--><g class="link" data-entity-1="ent0007" data-entity-2="ent0003" data-link-type="dependency" data-source-line="30" id="lnk22"><path d="M288.56,438.4883 C332.23,438.4883 380.55,438.4883 421.72,438.4883" fill="none" id="UC_Coloracao-to-UC_Grafo" style="stroke:#181818;stroke-width:1;"/><polygon fill="#181818" points="426.72,438.4883,417.72,434.4883,421.72,438.4883,417.72,442.4883,426.72,438.4883" style="stroke:#181818;stroke-width:1;stroke-linejoin:miter;stroke-miterlimit:10;"/></g><!--link UC_Inspecao to UC_Grafo--><g class="link" data-entity-1="ent0008" data-entity-2="ent0003" data-link-type="dependency" data-source-line="31" id="lnk23"><path d="M248.09,288.0283 C263.55,295.1783 281.27,303.8083 296.9,312.4883 C362.38,348.8983 431.5382,395.839 466.9282,420.509" fill="none" id="UC_Inspecao-to-UC_Grafo" style="stroke:#181818;stroke-width:1;"/><polygon fill="#181818" points="471.03,423.3683,465.9343,414.9401,466.9282,420.509,461.3594,421.503,471.03,423.3683" style="stroke:#181818;stroke-width:1;stroke-linejoin:miter;stroke-miterlimit:10;"/></g><!--link UC_Fluxo to UC_Log--><g class="link" data-entity-1="ent0005" data-entity-2="ent0011" data-link-type="dependency" data-source-line="33" id="lnk24"><path d="M258.44,504.9783 C271.67,498.5883 285.43,490.7083 296.9,481.4883 C330.44,454.5283 328.27,437.6183 356.9,405.4883 C398.22,359.1183 447.8501,311.8649 473.5701,287.9249" fill="none" id="UC_Fluxo-to-UC_Log" style="stroke:#181818;stroke-width:1;"/><polygon fill="#181818" points="477.23,284.5183,467.9169,287.7223,473.5701,287.9249,473.3675,293.5781,477.23,284.5183" style="stroke:#181818;stroke-width:1;stroke-linejoin:miter;stroke-miterlimit:10;"/></g><!--link UC_Coloracao to UC_Log--><g class="link" data-entity-1="ent0007" data-entity-2="ent0011" data-link-type="dependency" data-source-line="34" id="lnk25"><path d="M254.84,417.8083 C268.57,411.3383 283.5,403.9383 296.9,396.4883 C363.79,359.2983 434.7115,310.9922 469.1715,286.9122" fill="none" id="UC_Coloracao-to-UC_Log" style="stroke:#181818;stroke-width:1;"/><polygon fill="#181818" points="473.27,284.0483,463.6015,285.9246,469.1715,286.9122,468.1839,292.4822,473.27,284.0483" style="stroke:#181818;stroke-width:1;stroke-linejoin:miter;stroke-miterlimit:10;"/></g><!--link UC_Inspecao to UC_Log--><g class="link" data-entity-1="ent0008" data-entity-2="ent0011" data-link-type="dependency" data-source-line="35" id="lnk26"><path d="M264.07,270.4883 C317.09,270.4883 390.91,270.4883 440.71,270.4883" fill="none" id="UC_Inspecao-to-UC_Log" style="stroke:#181818;stroke-width:1;"/><polygon fill="#181818" points="445.71,270.4883,436.71,266.4883,440.71,270.4883,436.71,274.4883,445.71,270.4883" style="stroke:#181818;stroke-width:1;stroke-linejoin:miter;stroke-miterlimit:10;"/></g><!--link UC_TesteFluxo to UC_Log--><g class="link" data-entity-1="ent0009" data-entity-2="ent0011" data-link-type="dependency" data-source-line="36" id="lnk27"><path d="M263.4,202.7883 C321.02,219.8183 404.8551,244.601 453.2351,258.901" fill="none" id="UC_TesteFluxo-to-UC_Log" style="stroke:#181818;stroke-width:1;"/><polygon fill="#181818" points="458.03,260.3183,450.5329,253.9313,453.2351,258.901,448.2653,261.6031,458.03,260.3183" style="stroke:#181818;stroke-width:1;stroke-linejoin:miter;stroke-miterlimit:10;"/></g><!--link UC_TesteInspecao to UC_Log--><g class="link" data-entity-1="ent0010" data-entity-2="ent0011" data-link-type="dependency" data-source-line="37" id="lnk28"><path d="M255.79,123.9983 C269.27,130.2083 283.82,137.2983 296.9,144.4883 C363.96,181.3783 434.8089,229.8238 469.2089,253.9938" fill="none" id="UC_TesteInspecao-to-UC_Log" style="stroke:#181818;stroke-width:1;"/><polygon fill="#181818" points="473.3,256.8683,468.2356,248.4213,469.2089,253.9938,463.6364,254.9671,473.3,256.8683" style="stroke:#181818;stroke-width:1;stroke-linejoin:miter;stroke-miterlimit:10;"/></g><!--link UC_Fluxo to GMN29--><g class="link" data-entity-1="ent0005" data-entity-2="ent0030" data-link-type="association" data-source-line="40" id="lnk31"><path d="M263.59,542.2783 C276.03,548.5283 288.12,556.7783 296.9,567.4883 C364.37,649.8983 284.17,721.6883 356.9,799.4883 C362.91,805.9283 369.86,811.4383 377.37,816.1583" fill="none" id="UC_Fluxo-GMN29" style="stroke:#181818;stroke-width:1;stroke-dasharray:7,7;"/></g><!--link UC_Coloracao to GMN32--><g class="link" data-entity-1="ent0007" data-entity-2="ent0033" data-link-type="association" data-source-line="46" id="lnk34"><path d="M264.59,456.6783 C276.69,462.8783 288.39,470.9983 296.9,481.4883 C366.67,567.5783 279.74,643.9583 356.9,723.4883 C363.62,730.4183 371.5,736.1183 380.01,740.7983" fill="none" id="UC_Coloracao-GMN32" style="stroke:#181818;stroke-width:1;stroke-dasharray:7,7;"/></g><!--link UC_Inspecao to GMN35--><g class="link" data-entity-1="ent0008" data-entity-2="ent0036" data-link-type="association" data-source-line="51" id="lnk37"><path d="M255.84,283.3883 C271.09,289.7783 286.67,299.0983 296.9,312.4883 C389.24,433.3983 253.9,537.5283 356.9,649.4883 C368.93,662.5783 385.13,671.1283 402.13,676.6583" fill="none" id="UC_Inspecao-GMN35" style="stroke:#181818;stroke-width:1;stroke-dasharray:7,7;"/></g><?plantuml-src VLDDRzim3BthLn0zBxdkLc38ic9eWnLRkrE0WP1fHwii1fGq11ZstqV57uaTexhfaUyzaXAJIvxWnxVlJx22BpwVEC9HNB3kY2v2nT1IoCPugXCa1d7D8K7bX6no78n1crZWDMOKnyOK74EZcdVFmerWkxRn3luQq9CZMOmQsaRB_a02cb3p7M24ryslXtAP9kuegBh5reK3xyDdz_ij9i61CTodf7CRqEB9jGoq3vOb4QY4tWVcEMTA-oH_M0WUIB1YmNtO5SRezIWvlg6VSHeA5Ug8T3ILMhKOSY9rf3ZmDknLpUBCxPd4PeaTpOLuL7oixcj_dr9UA2OKgC_j1OxxyB4RuEXLCcYXjPuvsBn3NdOkCn7mt0ovJzoOVyRqpmwhrVtaEMPuLz4C7EOvWo_ZcWN6ocRuLSzBaP5chWeSCheVDrHuW_Obtk1ZZJUHmMqQk74eurlIwV6vIWzVEbqAB95COFtvtSvoVNcAxObiJWZRgkLGnTKZod5jTdoUJNsrFXzCltiHC9TlZY5H18BhdLeRNG8eLWk6b_Ty4GonPcaHX9F-8sgx7wWhe7gXzYvnN9iDLbZqGUWe58ifv1PIbl2-rVZKFqbSxQogE5qoLGNANZ4CRDJAMSzmqBvyub30AzN_?></g></svg>